<?xml version="1.0" encoding="UTF-8" standalone="no"?>
<!-- Created with Inkscape (http://www.inkscape.org/) -->

<svg
   xmlns:dc="http://purl.org/dc/elements/1.1/"
   xmlns:cc="http://creativecommons.org/ns#"
   xmlns:rdf="http://www.w3.org/1999/02/22-rdf-syntax-ns#"
   xmlns:svg="http://www.w3.org/2000/svg"
   xmlns="http://www.w3.org/2000/svg"
   xmlns:sodipodi="http://sodipodi.sourceforge.net/DTD/sodipodi-0.dtd"
   xmlns:inkscape="http://www.inkscape.org/namespaces/inkscape"
   width="36.766491mm"
   height="58.012691mm"
   viewBox="0 0 130.27497 205.55678"
   id="svg2"
   version="1.1"
   inkscape:version="0.91 r13725"
   sodipodi:docname="logo.svg">
  <defs
     id="defs4" />
  <sodipodi:namedview
     id="base"
     pagecolor="#ffffff"
     bordercolor="#666666"
     borderopacity="1.0"
     inkscape:pageopacity="0.0"
     inkscape:pageshadow="2"
     inkscape:zoom="1.09375"
     inkscape:cx="-120.95713"
     inkscape:cy="5.4041056"
     inkscape:document-units="px"
     inkscape:current-layer="layer1"
     showgrid="false"
     inkscape:window-width="1920"
     inkscape:window-height="1017"
     inkscape:window-x="0"
     inkscape:window-y="30"
     inkscape:window-maximized="1"
     fit-margin-top="0"
     fit-margin-left="0"
     fit-margin-right="0"
     fit-margin-bottom="0" />
  <metadata
     id="metadata7">
    <rdf:RDF>
      <cc:Work
         rdf:about="">
        <dc:format>image/svg+xml</dc:format>
        <dc:type
           rdf:resource="http://purl.org/dc/dcmitype/StillImage" />
        <dc:title></dc:title>
      </cc:Work>
    </rdf:RDF>
  </metadata>
  <g
     inkscape:label="Layer 1"
     inkscape:groupmode="layer"
     id="layer1"
     transform="translate(-346.92856,-332.20954)">
    <path
       style="fill:#1779ba;fill-opacity:1"
       d="m 412.19113,536.23968 c -5.59798,-3.03743 -7.28298,-10.4285 -3.71259,-16.28482 1.64575,-2.69943 1.90755,-4.25022 1.34772,-7.98339 -0.843,-5.62154 -2.74258,-10.37781 -4.83992,-12.11845 -0.85678,-0.71106 -1.55778,-1.72811 -1.55778,-2.2601 0,-0.97145 -3.98473,-4.69234 -5.09171,-4.75458 -0.32544,-0.0183 -1.12535,1.74784 -1.77757,3.92475 -1.16721,3.8958 -3.13072,6.35051 -3.13072,3.91391 0,-0.68536 -1.32896,0.0271 -2.95325,1.58328 -3.76026,3.60256 -11.64561,4.69287 -15.53049,2.1474 -3.48925,-2.28625 -3.26352,-4.49009 0.4491,-4.38453 3.15646,0.0897 6.03464,-1.66805 6.03464,-3.68554 0,-2.31916 -3.95428,-4.78843 -10.63464,-6.64083 -9.67493,-2.68278 -14.37565,-7.78838 -14.35559,-15.59205 0.0131,-5.1095 3.88854,-13.12518 8.15821,-16.874 l 3.4849,-3.05979 -2.49856,-3.23995 c -2.44236,-3.16705 -2.46928,-3.38731 -1.19663,-9.78998 0.71606,-3.60252 2.53711,-10.81264 4.04676,-16.02248 2.4524,-8.4633 2.57174,-9.53008 1.12018,-10.01345 -9.25468,-3.08182 -15.62793,-8.87817 -19.98947,-18.18 -2.32274,-4.95372 -2.63516,-6.86485 -2.63516,-16.12001 0,-9.88266 0.18742,-10.85277 3.18778,-16.5 8.10434,-15.25387 22.91718,-28.09233 35.81222,-31.03885 2.69579,-0.616 2.54368,-0.38584 -1.5,2.26967 -6.23324,4.09341 -13.73266,12.42212 -16.25452,18.05195 -2.72606,6.08567 -2.87833,16.22248 -0.31872,21.21723 2.25856,4.40729 8.19074,10.70196 11.93794,12.66742 2.74613,1.44038 2.99447,1.37712 6,-1.52828 4.19171,-4.05207 12.63471,-7.76457 20.8853,-9.18355 11.73481,-2.01821 24.49038,1.4875 33.18338,9.12006 3.15387,2.76914 3.70799,2.93874 5.50014,1.68347 2.69032,-1.88438 5.31874,-5.35565 8.14671,-10.75912 6.13176,-11.71609 0.0671,-31.30301 -12.84772,-41.49414 -5.62078,-4.43537 -3.61583,-4.14964 7.65446,1.09084 9.49407,4.41458 21.41283,15.99222 25.55608,24.82467 7.42023,15.81819 2.08994,38.73762 -12.44145,53.49638 l -5.92349,6.01617 3.96751,12.08241 3.9675,12.0824 -2.12752,4.94555 -2.12751,4.94555 3.59557,3.97987 c 1.97757,2.18893 3.86959,5.22872 4.20448,6.75509 0.3349,1.52636 0.77649,3.32283 0.98131,3.99213 0.94938,3.1024 -2.68432,11.18124 -6.6341,14.74962 -4.26501,3.85318 -5.82549,4.12127 -3.98637,0.68485 0.59456,-1.11095 1.08102,-3.03777 1.08102,-4.28182 0,-2.14229 -0.18155,-2.08594 -3.43306,1.06555 -3.94059,3.81937 -5.87696,7.84349 -5.39893,11.21994 0.27088,1.9133 0.93023,2.34316 3.58199,2.33527 4.00729,-0.0119 4.06838,0.84514 0.32692,4.58659 -2.50287,2.50288 -3.69278,2.92308 -8.27749,2.92308 -6.15105,0 -8.96207,-1.56423 -10.80453,-6.01232 -0.92823,-2.24095 -1.72307,-2.90877 -2.88782,-2.42637 -0.88389,0.36608 -2.2971,0.86653 -3.14045,1.11212 -0.84335,0.24559 -2.54057,2.64202 -3.77159,5.3254 -2.58727,5.63972 -2.19813,11.78341 0.92542,14.61018 2.59796,2.35112 2.35018,5.67821 -0.69213,9.29379 -2.56363,3.0467 -2.53979,5.0972 0.0593,5.0972 0.75325,0 2.0767,-0.70714 2.94098,-1.57143 1.42853,-1.42857 1.57139,-1.33067 1.57139,1.07692 0,1.5938 -1.16395,3.81231 -2.92308,5.57143 -2.35051,2.35051 -3.77062,2.91524 -7.25,2.88304 -2.3798,-0.022 -5.55876,-0.70843 -7.06435,-1.52535 z m 12.7963,-1.90281 c 1.85929,-1.4063 1.82519,-1.46953 -0.80887,-1.5 -5.42529,-0.0627 -8.50706,-6.24544 -5.50729,-11.04882 0.89895,-1.43947 0.94834,-2.45654 0.17855,-3.67692 -1.68058,-2.66428 -3.17285,-2.64538 -5.89285,0.0746 -5.90231,5.90231 -1.4444,17.61932 6.70354,17.61932 1.86218,0 4.2593,-0.66069 5.32692,-1.4682 z m -9.55887,-20.54711 c 1.33333,-0.87528 1.33333,-1.0941 0,-1.96938 -2.24832,-1.47592 -3,-1.2292 -3,0.98469 0,2.21389 0.75168,2.46061 3,0.98469 z m 6,-4.01607 c 0,-2.60968 -2.22989,-3.45114 -5.08968,-1.92062 l -2.24597,1.202 2.41783,1.33956 c 3.43765,1.90459 4.91782,1.7177 4.91782,-0.62094 z m -3.97251,-5.66066 c 4.13506,-2.82978 5.27608,-5.8705 2.58972,-6.90136 -1.95576,-0.75049 -10.57956,5.52795 -9.92738,7.22751 0.71978,1.87571 4.35637,1.71407 7.33766,-0.32615 z m -28.77749,-3.28901 c 3.61655,-4.01174 3.67572,-8.76534 0.16111,-12.94222 -3.15378,-3.74806 -1.69829,-4.0307 2.51216,-0.48784 1.6922,1.4239 3.07673,2.0544 3.07673,1.40113 0,-3.07955 -3.48149,-7.89554 -7.58091,-10.48676 -6.9375,-4.38515 -10.09978,-8.5462 -10.89633,-14.33777 -0.38687,-2.81287 -1.47628,-5.71843 -2.48702,-6.63315 -1.68752,-1.52718 -2.0527,-1.3314 -5.91261,3.16997 -6.48334,7.56077 -7.59775,10.59901 -6.19188,16.8811 0.64768,2.89412 1.8281,5.80191 2.62317,6.46176 1.21875,1.01146 1.44558,0.58776 1.44558,-2.70022 0,-3.66825 2.17641,-8.34495 3.88351,-8.34495 0.42356,0 0.58986,1.2375 0.36956,2.75 -0.72069,4.94796 1.36348,8.082 8.24317,12.39555 4.1944,2.62988 6.73924,4.9445 7.12466,6.48012 0.7689,3.06357 -1.85786,7.14472 -5.12664,7.96513 -3.78588,0.95019 -1.74469,2.70979 2.38287,2.05414 2.2801,-0.36219 4.64212,-1.70611 6.37287,-3.62599 z m 27.25343,-5.1561 c 1.96516,-1.72544 4.79332,-5.21294 6.28479,-7.75 2.27083,-3.86278 2.71178,-5.7836 2.71178,-11.81285 0,-8.10603 -1.80451,-11.7776 -3.02205,-6.14884 -1.24484,5.75499 -5.2278,12.47887 -9.61796,16.23669 -2.321,1.98668 -4.58899,3.61215 -5.03999,3.61215 -1.38872,0 -0.90712,4.43061 0.7367,6.77749 2.09369,2.98916 3.71278,2.80281 7.94673,-0.91464 z m -14.47255,-14.61285 c 0.0297,-8.42823 1.35551,-21.74134 2.53525,-25.45836 0.645,-2.03222 4.4462,-2.39059 7.57808,-0.71446 1.51432,0.81044 2.97647,0.69157 5.90455,-0.48001 2.1405,-0.85646 4.5818,-1.29243 5.4251,-0.96883 2.2577,0.86636 6.21565,16.03265 8.05659,30.87166 l 0.74436,6 1.83522,-4 c 1.00937,-2.2 2.3544,-6.57892 2.98895,-9.73093 0.63455,-3.15201 1.54687,-5.48795 2.02737,-5.19098 2.8154,1.74001 -0.6888,-11.80742 -4.57188,-17.67514 l -2.58285,-3.90295 2.26419,-0.0333 2.26419,-0.0333 -2.36078,-1.96673 c -3.12481,-2.60317 -9.6824,-2.58717 -13.63922,0.0333 -3.51731,2.32942 -9.18649,2.5517 -11.94113,0.4682 -2.54825,-1.9274 -6.74059,-1.85999 -11.34099,0.18235 -2.71147,1.20376 -3.24416,1.765 -1.96788,2.07333 0.9625,0.23252 1.74792,0.50227 1.74537,0.59944 -0.003,0.0972 -1.11687,2.87668 -2.47627,6.17668 -2.7094,6.57721 -3.54645,13.28695 -1.2691,10.17313 1.04985,-1.43546 1.2614,-0.68558 1.32118,4.68323 0.0539,4.84457 0.73761,7.75449 2.82355,12.018 1.5138,3.0941 3.16927,5.62564 3.67882,5.62564 0.50955,0 0.94034,-3.9375 0.95733,-8.75 z m 8.82208,3.8958 2.35296,-1.80973 -3.59818,-3.91803 c -1.979,-2.15492 -3.60033,-4.25554 -3.60296,-4.66804 -0.003,-0.4125 -0.45478,-0.75 -1.00478,-0.75 -1.42042,0 -1.24491,10.35509 0.2,11.8 1.6268,1.6268 2.87509,1.48234 5.65296,-0.6542 z m 5.9878,-10.11884 c 1.17447,-3.36909 0.57496,-4.31981 -1.8916,-2.99975 -1.45873,0.78069 -2.355,0.18566 -4.86852,-3.23219 -1.69435,-2.30396 -3.08064,-4.57693 -3.08064,-5.05104 0,-0.47411 -0.45,-0.5839 -1,-0.24398 -1.9093,1.18001 -0.97782,4.30531 3.10585,10.42065 4.42432,6.62547 5.74506,6.81437 7.73491,1.10631 z m 2.1793,-12.55113 c 1.59267,-1.91905 0.51054,-3.16107 -1.38413,-1.58864 -0.91672,0.76081 -2.94316,0.92887 -5.77417,0.47887 -3.98946,-0.63414 -4.24461,-0.55132 -2.98932,0.97031 1.75353,2.12556 8.42323,2.21723 10.14762,0.13946 z m -30.16869,-9.23463 c 3.24935,-14.10383 3.33807,-13.4731 -2.76429,-19.65265 l -5.41293,-5.48139 1.79728,-6.63967 1.79727,-6.63966 3.60736,0.67674 c 1.98405,0.37221 8.56109,2.18208 14.61565,4.02192 6.05456,1.83985 11.3813,2.97854 11.83721,2.53043 1.79779,-1.76707 1.89969,-8.71416 0.17668,-12.04609 -1.63767,-3.1669 -1.63142,-3.36062 0.14016,-4.34579 1.01983,-0.56713 3.15082,-2.32323 4.73553,-3.90246 2.70715,-2.69777 2.84195,-3.21556 2.2303,-8.56695 -0.79226,-6.9317 -2.94765,-10.08254 -8.15581,-11.9225 -4.85949,-1.71679 -10.04592,-1.02819 -16.28842,2.16261 -11.3057,5.7788 -16.27963,15.594 -25.62387,50.56426 -3.43981,12.87329 -3.35368,13.81328 1.70651,18.62437 6.30047,5.9903 11.99261,10.34372 12.83988,9.82008 0.41119,-0.25413 1.65386,-4.39559 2.76149,-9.20325 z m 28.55456,6.45124 c 1.56172,-1.14195 1.14266,-1.31729 -3.30887,-1.38444 -5.39124,-0.0813 -6.99795,1.27119 -2.34706,1.97575 1.5125,0.22912 3.00149,0.48401 3.30887,0.56642 0.30738,0.0824 1.36356,-0.43857 2.34706,-1.15773 z M 398.23655,444.9449 c 0.87854,-0.55718 1.07493,-1.75812 0.59816,-3.65775 -0.59269,-2.36145 -0.23738,-3.20492 2.15293,-5.11089 3.23093,-2.57625 3.14551,-2.88089 -1.05908,-3.77678 -2.39581,-0.51049 -3.26828,-0.20817 -4.3321,1.50108 -0.86488,1.3896 -0.99029,2.48212 -0.35756,3.11485 0.536,0.536 0.7387,2.73295 0.45044,4.8821 -0.52304,3.89955 0.0751,4.61521 2.54721,3.04739 z m 17.63531,-1.36234 c 2.19797,-3.13805 1.94313,-4.6443 -1.0137,-5.99152 l -2.57041,-1.17116 2.15867,-1.62828 c 2.06135,-1.55488 2.08936,-1.79414 0.62143,-5.30741 -0.84548,-2.02351 -1.98468,-3.67912 -2.53156,-3.67912 -1.65563,0 -4.11997,4.27111 -4.76007,8.25 -0.43029,2.6747 -1.10501,3.75 -2.35302,3.75 -0.96236,0 -2.34126,0.71272 -3.06421,1.58382 -1.88238,2.26814 0.10448,4.9961 3.37954,4.64011 1.39687,-0.15184 2.82514,0.18566 3.17392,0.75 1.12742,1.82421 5.35242,1.09786 6.95941,-1.19644 z m 19.49365,-17.58593 c 2.97555,-2.21401 3.77,-4.19156 1.6839,-4.19156 -3.03558,0 -12.62085,4.16841 -12.62085,5.48852 0,2.92472 6.26101,2.18226 10.93695,-1.29696 z m -60.89303,-19.309 c 2.23627,-5.97972 2.24464,-6.14121 0.37192,-7.17373 -3.3745,-1.86051 -8.43101,-8.04111 -11.21319,-13.70594 -3.74759,-7.6305 -4.35265,-20.95489 -1.31463,-28.95031 1.13549,-2.98835 1.88147,-5.61643 1.65773,-5.84016 -0.22374,-0.22374 -2.46661,2.39126 -4.98415,5.81111 -13.38813,18.18649 -10.39637,39.53358 7.36791,52.57223 2.51377,1.84506 4.85312,3.36581 5.19856,3.37945 0.34545,0.0136 1.65758,-2.72806 2.91585,-6.09265 z m 88.03065,-17.19638 c 1.08215,-1.7524 2.65222,-5.50473 3.48906,-8.33852 1.32417,-4.48411 1.34208,-5.92898 0.13809,-11.14057 -1.27428,-5.51584 -6.33685,-15.90529 -7.28723,-14.95491 -0.22505,0.22505 0.078,3.04487 0.67355,6.26625 0.59551,3.22139 0.77985,7.91008 0.40966,10.41932 -0.67694,4.58838 -4.71042,13.16397 -7.13999,15.18034 -1.04808,0.86983 -0.79721,1.7502 1.27166,4.46263 2.1657,2.83939 2.88876,3.21235 4.52748,2.33534 1.0726,-0.57404 2.83557,-2.47748 3.91772,-4.22988 z"
       id="path4147"
       inkscape:connector-curvature="0"
       inkscape:export-xdpi="90"
       inkscape:export-ydpi="90" />
  </g>
</svg>
